REM DIRINDEX 1\2\6,1\2\7,1\2\8,1\3\9,1\3\10,1\3\11,1\4\12,1\4\13,1\4\14,1\5\15,1\5\16,1\5\17,1\5\18
REM DIRNAME cjc019,folder01,folder02,folder03,folder04,folder05,folder06,folder07,folder08,folder09,folder10,folder11,folder12,folder13,folder14,folder15,folder16,folder17
TITLE ""
FILE "2Q_k_071-080.mp3" MP3
  TRACK 01 AUDIO
    TITLE "9:cjc019_1862"
    INDEX 01 00:00:00
  TRACK 02 AUDIO
    TITLE "0:"
    INDEX 01 00:01:26
  TRACK 03 AUDIO
    TITLE "10:cjc019_1863"
    INDEX 01 00:02:06
  TRACK 04 AUDIO
    TITLE "0:"
    INDEX 01 00:04:23
  TRACK 05 AUDIO
    TITLE "11:cjc019_1864"
    INDEX 01 00:04:74
  TRACK 06 AUDIO
    TITLE "11:cjc019_1865"
    INDEX 01 00:10:29
  TRACK 07 AUDIO
    TITLE "0:"
    INDEX 01 00:17:12
  TRACK 08 AUDIO
    TITLE "9:cjc019_1866"
    INDEX 01 00:17:63
  TRACK 09 AUDIO
    TITLE "0:"
    INDEX 01 00:19:18
  TRACK 10 AUDIO
    TITLE "10:cjc019_1867"
    INDEX 01 00:20:00
  TRACK 11 AUDIO
    TITLE "0:"
    INDEX 01 00:21:04
  TRACK 12 AUDIO
    TITLE "11:cjc019_1868"
    INDEX 01 00:21:58
  TRACK 13 AUDIO
    TITLE "11:cjc019_1869"
    INDEX 01 00:25:09
  TRACK 14 AUDIO
    TITLE "0:"
    INDEX 01 00:29:54
  TRACK 15 AUDIO
    TITLE "9:cjc019_1870"
    INDEX 01 00:30:34
  TRACK 16 AUDIO
    TITLE "0:"
    INDEX 01 00:32:45
  TRACK 17 AUDIO
    TITLE "10:cjc019_1871"
    INDEX 01 00:33:26
  TRACK 18 AUDIO
    TITLE "0:"
    INDEX 01 00:34:61
  TRACK 19 AUDIO
    TITLE "11:cjc019_1872"
    INDEX 01 00:35:41
  TRACK 20 AUDIO
    TITLE "11:cjc019_1873"
    INDEX 01 00:37:65
  TRACK 21 AUDIO
    TITLE "0:"
    INDEX 01 00:40:44
  TRACK 22 AUDIO
    TITLE "9:cjc019_1874"
    INDEX 01 00:41:22
  TRACK 23 AUDIO
    TITLE "0:"
    INDEX 01 00:43:25
  TRACK 24 AUDIO
    TITLE "10:cjc019_1875"
    INDEX 01 00:44:07
  TRACK 25 AUDIO
    TITLE "0:"
    INDEX 01 00:46:17
  TRACK 26 AUDIO
    TITLE "11:cjc019_1876"
    INDEX 01 00:46:68
  TRACK 27 AUDIO
    TITLE "11:cjc019_1877"
    INDEX 01 00:49:55
  TRACK 28 AUDIO
    TITLE "11:cjc019_1878"
    INDEX 01 00:53:02
  TRACK 29 AUDIO
    TITLE "0:"
    INDEX 01 00:55:57
  TRACK 30 AUDIO
    TITLE "9:cjc019_1879"
    INDEX 01 00:56:35
  TRACK 31 AUDIO
    TITLE "0:"
    INDEX 01 00:58:30
  TRACK 32 AUDIO
    TITLE "10:cjc019_1880"
    INDEX 01 00:59:06
  TRACK 33 AUDIO
    TITLE "0:"
    INDEX 01 01:01:52
  TRACK 34 AUDIO
    TITLE "11:cjc019_1881"
    INDEX 01 01:02:30
  TRACK 35 AUDIO
    TITLE "11:cjc019_1882"
    INDEX 01 01:05:11
  TRACK 36 AUDIO
    TITLE "0:"
    INDEX 01 01:08:23
  TRACK 37 AUDIO
    TITLE "9:cjc019_1883"
    INDEX 01 01:08:70
  TRACK 38 AUDIO
    TITLE "0:"
    INDEX 01 01:10:35
  TRACK 39 AUDIO
    TITLE "10:cjc019_1884"
    INDEX 01 01:11:19
  TRACK 40 AUDIO
    TITLE "0:"
    INDEX 01 01:12:54
  TRACK 41 AUDIO
    TITLE "11:cjc019_1885"
    INDEX 01 01:13:32
  TRACK 42 AUDIO
    TITLE "11:cjc019_1886"
    INDEX 01 01:16:07
  TRACK 43 AUDIO
    TITLE "0:"
    INDEX 01 01:17:47
  TRACK 44 AUDIO
    TITLE "9:cjc019_1887"
    INDEX 01 01:18:29
  TRACK 45 AUDIO
    TITLE "0:"
    INDEX 01 01:20:28
  TRACK 46 AUDIO
    TITLE "10:cjc019_1888"
    INDEX 01 01:20:73
  TRACK 47 AUDIO
    TITLE "0:"
    INDEX 01 01:23:20
  TRACK 48 AUDIO
    TITLE "11:cjc019_1889"
    INDEX 01 01:24:04
  TRACK 49 AUDIO
    TITLE "11:cjc019_1890"
    INDEX 01 01:26:34
  TRACK 50 AUDIO
    TITLE "0:"
    INDEX 01 01:29:29
  TRACK 51 AUDIO
    TITLE "9:cjc019_1891"
    INDEX 01 01:30:11
  TRACK 52 AUDIO
    TITLE "0:"
    INDEX 01 01:31:51
  TRACK 53 AUDIO
    TITLE "10:cjc019_1892"
    INDEX 01 01:32:29
  TRACK 54 AUDIO
    TITLE "0:"
    INDEX 01 01:35:69
  TRACK 55 AUDIO
    TITLE "11:cjc019_1893"
    INDEX 01 01:36:48
  TRACK 56 AUDIO
    TITLE "11:cjc019_1894"
    INDEX 01 01:41:05
  TRACK 57 AUDIO
    TITLE "0:"
    INDEX 01 01:42:73
  TRACK 58 AUDIO
    TITLE "9:cjc019_1895"
    INDEX 01 01:43:51
  TRACK 59 AUDIO
    TITLE "0:"
    INDEX 01 01:45:10
  TRACK 60 AUDIO
    TITLE "10:cjc019_1896"
    INDEX 01 01:45:63
  TRACK 61 AUDIO
    TITLE "0:"
    INDEX 01 01:48:63
  TRACK 62 AUDIO
    TITLE "11:cjc019_1897"
    INDEX 01 01:49:37
  TRACK 63 AUDIO
    TITLE "11:cjc019_1898"
    INDEX 01 01:51:74
  TRACK 64 AUDIO
    TITLE "0:"
    INDEX 01 01:55:62
  TRACK 65 AUDIO
    TITLE "9:cjc019_1899"
    INDEX 01 01:56:34
  TRACK 66 AUDIO
    TITLE "0:"
    INDEX 01 01:57:66
  TRACK 67 AUDIO
    TITLE "10:cjc019_1900"
    INDEX 01 01:58:46
  TRACK 68 AUDIO
    TITLE "0:"
    INDEX 01 02:00:08
  TRACK 69 AUDIO
    TITLE "11:cjc019_1901"
    INDEX 01 02:00:59
  TRACK 70 AUDIO
    TITLE "11:cjc019_1902"
    INDEX 01 02:06:18
  TRACK 71 AUDIO
    TITLE "0:"
    INDEX 01 02:09:40
